<svg width="956" height="359" viewBox="0 0 956 359" fill="none" xmlns="http://www.w3.org/2000/svg">
<path d="M134.092 43.7261V87.4522H110.317C85.5693 87.4522 77.9432 87.9754 67.9246 90.5168C34.5791 98.963 8.78496 126.096 1.68223 159.955C-0.560742 170.868 -0.560742 185.668 1.68223 196.581C9.23356 232.757 37.4202 260.338 74.2797 267.663C82.2796 269.233 101.719 268.934 110.018 266.991C147.55 258.395 175.512 228.123 180.372 190.825C180.821 187.312 181.269 149.491 181.568 96.4216C181.793 47.6876 182.166 6.05444 182.466 3.88682L182.914 5.70416e-05H158.466H134.092V43.7261ZM134.092 158.61C134.092 185.518 133.644 189.181 129.457 197.776C125.868 205.251 117.494 213.622 110.092 217.135C96.6346 223.489 84.2235 223.414 70.7657 216.762C59.8499 211.38 51.5509 201.065 48.4855 189.106C46.7659 182.379 47.2145 170.27 49.4575 164.141C55.1397 148.519 68.8965 137.307 84.7468 135.289C86.9898 134.99 99.0271 134.691 111.513 134.617L134.092 134.542V158.61Z" fill="white"/>
<path d="M652.592 88.2743C631.433 91.1147 612.667 100.607 598.237 115.706C568.854 146.501 564.817 192.544 588.293 228.721C598.013 243.745 617.003 258.245 634.274 264.076C666.723 274.988 701.713 267.364 726.161 244.044C739.843 231.038 748.516 215.566 752.927 196.431C753.824 192.395 754.124 187.536 754.124 177.894C754.124 165.711 753.974 164.216 751.806 156.068C747.544 139.699 739.843 126.394 727.806 114.286C715.096 101.504 700.666 93.656 682.872 89.6198C675.321 87.9754 659.919 87.2279 652.592 88.2743ZM674.648 136.56C689.077 140.521 701.115 152.78 704.853 167.131C706.348 172.961 706.423 183.724 704.928 189.33C698.647 213.398 672.33 227.675 649.452 219.453C634.723 214.071 623.583 201.289 620.368 186.041C616.031 165.785 628.293 144.408 648.106 137.457C656.629 134.467 665.975 134.168 674.648 136.56Z" fill="white"/>
<path d="M855.954 87.9006C824.478 91.3389 797.263 110.399 783.357 138.653C780.815 143.81 778.422 150.313 776.927 155.844L774.535 164.814L774.236 215.043L774.011 265.346H797.562H821.188V220.275C821.188 183.575 821.413 174.306 822.31 170.046C825.674 154.2 838.085 141.119 853.711 137.158C859.319 135.738 868.889 135.738 874.272 137.158C887.73 140.746 899.094 151.135 904.103 164.44L905.898 169.298L906.571 211.53C906.87 234.775 907.393 256.302 907.767 259.367L908.29 264.973L932.066 265.197L955.766 265.346V219.602C955.766 171.018 955.467 164.888 952.252 153.976C947.767 138.279 940.963 126.694 929.599 115.033C916.066 101.28 900.589 92.8338 882.347 89.3208C876.066 88.1249 861.412 87.3027 855.954 87.9006Z" fill="white"/>
<path d="M469.042 89.7693C451.771 91.7874 436.893 98.5145 426.426 109.128C416.482 119.144 412.146 129.31 412.146 142.764C412.146 151.21 413.043 155.695 416.033 161.973C424.258 179.24 439.659 187.91 482.874 199.645C506.799 206.148 508.145 206.596 511.359 210.184C513.752 212.875 514.051 213.548 513.677 216.164C512.93 221.844 507.023 225.656 496.631 227.301C481.304 229.693 459.696 224.984 440.407 215.117C435.622 212.576 431.51 210.707 431.36 210.857C429.192 213.473 409.23 241.502 409.23 241.951C409.23 242.325 412.37 244.717 416.183 247.183C441.902 264.15 476.893 272.896 502.911 269.009C522.201 266.168 539.77 257.274 549.191 245.763C555.546 237.989 559.434 227.226 560.032 215.94C560.48 206.895 559.733 202.336 556.368 195.235C548.967 179.539 533.415 169.896 498.948 159.582C470.986 151.285 467.173 150.089 463.734 148.295C457.977 145.38 456.332 140.895 459.696 136.934C465.304 130.281 482.724 128.413 503.135 132.374C510.612 133.794 522.873 137.457 526.761 139.475C527.883 140.073 528.929 140.521 529.154 140.521C529.827 140.521 550.761 110.997 550.836 110.025C550.91 108.605 539.471 101.803 532.144 98.8882C512.331 91.04 488.182 87.6017 469.042 89.7693Z" fill="white"/>
<path d="M207.662 92.2359C207.437 92.8338 207.362 115.257 207.587 142.166C207.811 188.134 207.961 191.348 209.381 197.702C215.661 225.133 231.811 246.062 255.96 258.245C266.876 263.702 276.82 266.393 292.296 267.962C305.156 269.308 326.688 262.431 336.333 253.985L339.698 250.995V255.854C339.698 266.617 335.137 283.883 329.903 292.778C325.791 299.804 317.118 308.026 310.539 311.165C296.408 317.818 278.24 317.967 261.941 311.539C256.783 309.521 246.914 304.662 243.026 302.196C241.456 301.224 239.886 300.477 239.512 300.626C238.615 300.925 214.839 331.122 214.839 331.944C214.839 332.243 218.428 334.934 222.839 337.849C236.521 347.043 251.848 353.546 267.923 356.984C276.82 358.928 300.595 358.928 310.016 357.059C349.941 348.986 373.043 324.246 381.865 280.295C386.65 256.452 387.697 231.711 387.398 150.986L387.174 91.5632H363.623H340.071L339.698 140.148C339.324 184.995 339.249 189.031 337.978 192.469C332.595 206.97 320.333 217.808 305.679 220.873C299.1 222.218 295.81 222.218 289.231 220.873C274.577 217.808 262.315 206.97 256.932 192.469C255.661 189.031 255.586 184.995 255.212 140.148L254.839 91.5632L231.437 91.3389C211.848 91.1894 208.035 91.3389 207.662 92.2359Z" fill="white"/>
</svg>
