<svg width="16" height="16" viewBox="0 0 16 16" fill="none" xmlns="http://www.w3.org/2000/svg">
<g clip-path="url(#clip0_158_6)">
<path d="M2 5.33301V15.333C1.99987 15.4206 2.01703 15.5075 2.05051 15.5884C2.08398 15.6694 2.13311 15.743 2.19507 15.8049C2.25703 15.8669 2.33061 15.9161 2.41159 15.9495C2.49257 15.983 2.57938 16.0001 2.66701 16H13.334C13.4215 16 13.5082 15.9828 13.5891 15.9492C13.67 15.9157 13.7434 15.8665 13.8053 15.8046C13.8671 15.7426 13.9162 15.6691 13.9496 15.5882C13.983 15.5073 14.0001 15.4206 14 15.333V5.33301H2Z" fill="white"/>
<path d="M0.667068 4H15.3341C15.5064 3.99332 15.6694 3.92016 15.7889 3.7959C15.9085 3.67164 15.9752 3.50592 15.9752 3.3335C15.9752 3.16107 15.9085 2.99536 15.7889 2.87109C15.6694 2.74683 15.5064 2.67367 15.3341 2.66699H11.3341V0.666992C11.3341 0.490093 11.2638 0.32046 11.1387 0.195374C11.0136 0.0702868 10.844 0 10.6671 0H5.33406C5.15716 0 4.98751 0.0702868 4.86243 0.195374C4.73734 0.32046 4.66707 0.490093 4.66707 0.666992V2.66699H0.667068C0.494769 2.67367 0.331746 2.74683 0.212204 2.87109C0.0926618 2.99536 0.0258789 3.16107 0.0258789 3.3335C0.0258789 3.50592 0.0926618 3.67164 0.212204 3.7959C0.331746 3.92016 0.494769 3.99332 0.667068 4ZM6.00006 1.33301H10.0001V2.66602H6.00006V1.33301Z" fill="white"/>
</g>
<defs>
<clipPath id="clip0_158_6">
<rect width="16" height="16" fill="white"/>
</clipPath>
</defs>
</svg>
