<svg width="166" height="166" viewBox="0 0 166 166" fill="none" xmlns="http://www.w3.org/2000/svg">
<path d="M107.106 83.0777L160.213 29.9973C166.88 23.3299 166.88 12.5714 160.213 5.90402C153.545 -0.763395 142.787 -0.763395 136.119 5.90402L83.013 58.9844L29.9197 5.89107C23.2523 -0.776342 12.4938 -0.776342 5.82636 5.89107C-0.841047 12.5585 -0.841047 23.317 5.82636 29.9844L58.9326 83.0647L5.82636 136.145C-0.841047 142.812 -0.841047 153.571 5.82636 160.238C12.5067 166.906 23.304 166.906 29.9197 160.238L83.0259 107.158L136.132 160.238C142.8 166.906 153.558 166.906 160.225 160.238C166.841 153.571 166.841 142.812 160.161 136.132L107.106 83.0777Z" fill="white"/>
</svg>
