<svg width="40" height="40" viewBox="0 0 40 40" fill="none" xmlns="http://www.w3.org/2000/svg">
<path fill-rule="evenodd" clip-rule="evenodd" d="M24.799 23.4509L32 30.5452L30.7518 31.7749L23.6349 24.7635C21.9745 26.311 19.7334 27.26 17.2673 27.26C12.1491 27.26 8 23.1724 8 18.13C8 13.0876 12.1491 9 17.2673 9C22.3855 9 26.5346 13.0876 26.5346 18.13C26.5346 20.1154 25.8914 21.9528 24.799 23.4509ZM17.2673 25.521C21.4106 25.521 24.7694 22.2119 24.7694 18.13C24.7694 14.0481 21.4106 10.739 17.2673 10.739C13.124 10.739 9.7652 14.0481 9.7652 18.13C9.7652 22.2119 13.124 25.521 17.2673 25.521Z" fill="white"/>
</svg>
