<svg width="40" height="40" viewBox="0 0 40 40" fill="none" xmlns="http://www.w3.org/2000/svg">
<g clip-path="url(#clip0_164_40)">
<path d="M19 8.5H21C22.933 8.5 24.5 10.067 24.5 12V14C24.5 15.933 22.933 17.5 21 17.5H19C17.067 17.5 15.5 15.933 15.5 14V12C15.5 10.067 17.067 8.5 19 8.5Z" stroke="white"/>
<path d="M21 9H19C17.3431 9 16 10.3431 16 12V14C16 15.6569 17.3431 17 19 17H21C22.6569 17 24 15.6569 24 14V12C24 10.3431 22.6569 9 21 9Z" stroke="white" stroke-width="2"/>
<path d="M12 20.5H28C28.9283 20.5 29.8185 20.8687 30.4749 21.5251C31.1313 22.1815 31.5 23.0717 31.5 24V31.5H8.5V24C8.5 23.0717 8.86875 22.1815 9.52513 21.5251C10.1815 20.8687 11.0717 20.5 12 20.5Z" stroke="white"/>
<path d="M12 21H28C28.7956 21 29.5587 21.3161 30.1213 21.8787C30.6839 22.4413 31 23.2044 31 24V31H9V24C9 23.2044 9.31607 22.4413 9.87868 21.8787C10.4413 21.3161 11.2044 21 12 21Z" stroke="white" stroke-width="2"/>
</g>
<defs>
<clipPath id="clip0_164_40">
<rect width="24" height="24" fill="white" transform="translate(8 8)"/>
</clipPath>
</defs>
</svg>
