<svg width="40" height="40" viewBox="0 0 40 40" fill="none" xmlns="http://www.w3.org/2000/svg">
<path d="M20 0.00087738C8.95546 0.00087738 0 8.95458 0 20C0 31.0454 8.95458 39.9991 20 39.9991C31.0463 39.9991 40 31.0454 40 20C40 8.95458 31.0463 0.00087738 20 0.00087738ZM20 5.98085C23.6546 5.98085 26.616 8.94316 26.616 12.596C26.616 16.2497 23.6546 19.2111 20 19.2111C16.3472 19.2111 13.3858 16.2497 13.3858 12.596C13.3858 8.94316 16.3472 5.98085 20 5.98085ZM19.9956 34.7703C16.3507 34.7703 13.0124 33.4429 10.4375 31.2457C9.81024 30.7107 9.4483 29.9262 9.4483 29.103C9.4483 25.3984 12.4466 22.4335 16.1522 22.4335H23.8496C27.556 22.4335 30.5429 25.3984 30.5429 29.103C30.5429 29.9271 30.1827 30.7098 29.5546 31.2448C26.9806 33.4429 23.6414 34.7703 19.9956 34.7703Z" fill="white"/>
</svg>
